<mxfile host="app.diagrams.net" modified="2022-04-28T07:56:17.486Z" agent="5.0 (Windows)" etag="RaVBtfUAzJtyxlPG965C" version="17.4.6" type="github">
  <diagram id="C5RBs43oDa-KdzZeNtuy" name="Page-1">
    <mxGraphModel dx="1038" dy="544" grid="1" gridSize="10" guides="1" tooltips="1" connect="1" arrows="1" fold="1" page="1" pageScale="1" pageWidth="827" pageHeight="1169" math="0" shadow="0">
      <root>
        <mxCell id="WIyWlLk6GJQsqaUBKTNV-0" />
        <mxCell id="WIyWlLk6GJQsqaUBKTNV-1" parent="WIyWlLk6GJQsqaUBKTNV-0" />
        <mxCell id="Uw2qJhcZrCrauIdlH-4s-2" style="edgeStyle=orthogonalEdgeStyle;rounded=0;orthogonalLoop=1;jettySize=auto;html=1;exitX=0.5;exitY=1;exitDx=0;exitDy=0;" edge="1" parent="WIyWlLk6GJQsqaUBKTNV-1" source="Uw2qJhcZrCrauIdlH-4s-1" target="Uw2qJhcZrCrauIdlH-4s-3">
          <mxGeometry relative="1" as="geometry">
            <mxPoint x="330" y="200" as="targetPoint" />
          </mxGeometry>
        </mxCell>
        <mxCell id="Uw2qJhcZrCrauIdlH-4s-1" value="&lt;div&gt;export model in gltf or fbx from dcc(like 3dsmax)&lt;/div&gt;" style="rounded=1;whiteSpace=wrap;html=1;" vertex="1" parent="WIyWlLk6GJQsqaUBKTNV-1">
          <mxGeometry x="260" y="30" width="140" height="60" as="geometry" />
        </mxCell>
        <mxCell id="Uw2qJhcZrCrauIdlH-4s-4" style="edgeStyle=orthogonalEdgeStyle;rounded=0;orthogonalLoop=1;jettySize=auto;html=1;" edge="1" parent="WIyWlLk6GJQsqaUBKTNV-1" source="Uw2qJhcZrCrauIdlH-4s-3" target="Uw2qJhcZrCrauIdlH-4s-5">
          <mxGeometry relative="1" as="geometry">
            <mxPoint x="240" y="320" as="targetPoint" />
            <Array as="points">
              <mxPoint x="330" y="240" />
              <mxPoint x="330" y="240" />
            </Array>
          </mxGeometry>
        </mxCell>
        <mxCell id="Uw2qJhcZrCrauIdlH-4s-3" value="&lt;div&gt;Import in Unreal engine and create a new level and organize the meshes&lt;/div&gt;" style="rounded=1;whiteSpace=wrap;html=1;" vertex="1" parent="WIyWlLk6GJQsqaUBKTNV-1">
          <mxGeometry x="220" y="120" width="220" height="80" as="geometry" />
        </mxCell>
        <mxCell id="Uw2qJhcZrCrauIdlH-4s-6" style="edgeStyle=orthogonalEdgeStyle;rounded=0;orthogonalLoop=1;jettySize=auto;html=1;" edge="1" parent="WIyWlLk6GJQsqaUBKTNV-1" source="Uw2qJhcZrCrauIdlH-4s-5" target="Uw2qJhcZrCrauIdlH-4s-7">
          <mxGeometry relative="1" as="geometry">
            <mxPoint x="370" y="450" as="targetPoint" />
          </mxGeometry>
        </mxCell>
        <mxCell id="Uw2qJhcZrCrauIdlH-4s-10" style="edgeStyle=orthogonalEdgeStyle;rounded=0;orthogonalLoop=1;jettySize=auto;html=1;" edge="1" parent="WIyWlLk6GJQsqaUBKTNV-1" source="Uw2qJhcZrCrauIdlH-4s-5" target="Uw2qJhcZrCrauIdlH-4s-19">
          <mxGeometry relative="1" as="geometry">
            <mxPoint x="329" y="600" as="targetPoint" />
          </mxGeometry>
        </mxCell>
        <mxCell id="Uw2qJhcZrCrauIdlH-4s-5" value="&lt;div&gt;Set up point cloud scanning in UE&lt;/div&gt;" style="rounded=1;whiteSpace=wrap;html=1;" vertex="1" parent="WIyWlLk6GJQsqaUBKTNV-1">
          <mxGeometry x="244" y="240" width="170" height="100" as="geometry" />
        </mxCell>
        <mxCell id="Uw2qJhcZrCrauIdlH-4s-8" style="edgeStyle=orthogonalEdgeStyle;rounded=0;orthogonalLoop=1;jettySize=auto;html=1;" edge="1" parent="WIyWlLk6GJQsqaUBKTNV-1" source="Uw2qJhcZrCrauIdlH-4s-7" target="Uw2qJhcZrCrauIdlH-4s-9">
          <mxGeometry relative="1" as="geometry">
            <mxPoint x="450" y="410" as="targetPoint" />
          </mxGeometry>
        </mxCell>
        <mxCell id="Uw2qJhcZrCrauIdlH-4s-7" value="&lt;div&gt;Create Cubes that &lt;span class=&quot;ILfuVd&quot;&gt;&lt;span class=&quot;hgKElc&quot;&gt;surrounds the whole scene&lt;/span&gt;&lt;/span&gt;&lt;/div&gt; " style="rounded=1;whiteSpace=wrap;html=1;arcSize=0;" vertex="1" parent="WIyWlLk6GJQsqaUBKTNV-1">
          <mxGeometry x="480" y="260" width="120" height="60" as="geometry" />
        </mxCell>
        <mxCell id="Uw2qJhcZrCrauIdlH-4s-17" style="edgeStyle=orthogonalEdgeStyle;rounded=0;orthogonalLoop=1;jettySize=auto;html=1;" edge="1" parent="WIyWlLk6GJQsqaUBKTNV-1" source="Uw2qJhcZrCrauIdlH-4s-9">
          <mxGeometry relative="1" as="geometry">
            <mxPoint x="330" y="360" as="targetPoint" />
            <Array as="points">
              <mxPoint x="740" y="360" />
            </Array>
          </mxGeometry>
        </mxCell>
        <mxCell id="Uw2qJhcZrCrauIdlH-4s-9" value="&lt;div&gt;low Scan on non essential areas and high scan on essentials&lt;/div&gt;" style="rounded=1;whiteSpace=wrap;html=1;" vertex="1" parent="WIyWlLk6GJQsqaUBKTNV-1">
          <mxGeometry x="680" y="245" width="120" height="90" as="geometry" />
        </mxCell>
        <mxCell id="Uw2qJhcZrCrauIdlH-4s-20" style="edgeStyle=orthogonalEdgeStyle;rounded=0;orthogonalLoop=1;jettySize=auto;html=1;" edge="1" parent="WIyWlLk6GJQsqaUBKTNV-1" source="Uw2qJhcZrCrauIdlH-4s-19" target="Uw2qJhcZrCrauIdlH-4s-21">
          <mxGeometry relative="1" as="geometry">
            <mxPoint x="329" y="720" as="targetPoint" />
          </mxGeometry>
        </mxCell>
        <mxCell id="Uw2qJhcZrCrauIdlH-4s-19" value="&lt;div&gt;The point cloud file is created&lt;/div&gt;" style="rounded=1;whiteSpace=wrap;html=1;" vertex="1" parent="WIyWlLk6GJQsqaUBKTNV-1">
          <mxGeometry x="269" y="420" width="120" height="60" as="geometry" />
        </mxCell>
        <mxCell id="Uw2qJhcZrCrauIdlH-4s-22" style="edgeStyle=orthogonalEdgeStyle;rounded=0;orthogonalLoop=1;jettySize=auto;html=1;" edge="1" parent="WIyWlLk6GJQsqaUBKTNV-1" source="Uw2qJhcZrCrauIdlH-4s-21" target="Uw2qJhcZrCrauIdlH-4s-23">
          <mxGeometry relative="1" as="geometry">
            <mxPoint x="329" y="850" as="targetPoint" />
          </mxGeometry>
        </mxCell>
        <mxCell id="Uw2qJhcZrCrauIdlH-4s-21" value="&lt;div&gt;Run the python script to create mesh from point cloud with the help of Open3D&lt;/div&gt;" style="rounded=1;whiteSpace=wrap;html=1;" vertex="1" parent="WIyWlLk6GJQsqaUBKTNV-1">
          <mxGeometry x="234" y="535" width="190" height="100" as="geometry" />
        </mxCell>
        <mxCell id="Uw2qJhcZrCrauIdlH-4s-29" style="edgeStyle=orthogonalEdgeStyle;rounded=0;orthogonalLoop=1;jettySize=auto;html=1;" edge="1" parent="WIyWlLk6GJQsqaUBKTNV-1" source="Uw2qJhcZrCrauIdlH-4s-23" target="Uw2qJhcZrCrauIdlH-4s-30">
          <mxGeometry relative="1" as="geometry">
            <mxPoint x="329" y="870" as="targetPoint" />
          </mxGeometry>
        </mxCell>
        <mxCell id="Uw2qJhcZrCrauIdlH-4s-23" value="Optimized low poly mesh is created in .ply format" style="rounded=1;whiteSpace=wrap;html=1;" vertex="1" parent="WIyWlLk6GJQsqaUBKTNV-1">
          <mxGeometry x="239" y="700" width="180" height="80" as="geometry" />
        </mxCell>
        <mxCell id="Uw2qJhcZrCrauIdlH-4s-31" style="edgeStyle=orthogonalEdgeStyle;rounded=0;orthogonalLoop=1;jettySize=auto;html=1;" edge="1" parent="WIyWlLk6GJQsqaUBKTNV-1" source="Uw2qJhcZrCrauIdlH-4s-30" target="Uw2qJhcZrCrauIdlH-4s-32">
          <mxGeometry relative="1" as="geometry">
            <mxPoint x="329" y="1020" as="targetPoint" />
          </mxGeometry>
        </mxCell>
        <mxCell id="Uw2qJhcZrCrauIdlH-4s-30" value="&lt;div&gt;Move the low poly mesh to blender along with the org mesh which was used to create point cloud&lt;/div&gt;" style="rounded=1;whiteSpace=wrap;html=1;" vertex="1" parent="WIyWlLk6GJQsqaUBKTNV-1">
          <mxGeometry x="214" y="840" width="230" height="80" as="geometry" />
        </mxCell>
        <mxCell id="Uw2qJhcZrCrauIdlH-4s-32" value="&lt;div&gt;create UV map of low poly mesh and bake out the textures from high poly mesh to low poly mesh&lt;/div&gt;" style="rounded=1;whiteSpace=wrap;html=1;" vertex="1" parent="WIyWlLk6GJQsqaUBKTNV-1">
          <mxGeometry x="233" y="990" width="191" height="100" as="geometry" />
        </mxCell>
      </root>
    </mxGraphModel>
  </diagram>
</mxfile>
